<svg width="982" height="795" viewBox="0 0 982 795" fill="none" xmlns="http://www.w3.org/2000/svg">
<path d="M21.2724 18.0206L0.44043 35.508V751.819L17.2404 767.289C42.7764 791.502 81.0804 793.52 556.856 793.52L981.56 794.193V720.207H282.68V0.533203H228.92V360.37C228.92 715.499 228.92 720.207 215.48 720.207C202.04 720.207 202.04 715.499 202.04 360.37V0.533203H122.072C45.4644 0.533203 40.7604 1.2058 21.2724 18.0206Z" fill="#FBFCFF"/>
<path d="M331.736 55.0133L303.512 77.8814V663.037L331.736 685.905L359.96 708.101L361.976 539.28C362.648 446.462 362.648 294.456 361.976 201.638L359.96 32.8177L331.736 55.0133Z" fill="#FBFCFF"/>
<path d="M432.536 80.5718L410.36 98.7318V630.753L425.816 643.532C467.48 680.524 464.12 706.755 464.12 367.769C464.12 198.948 462.104 61.0666 459.416 61.0666C456.056 61.7392 443.96 69.8103 432.536 80.5718Z" fill="#FBFCFF"/>
<path d="M536.696 131.689L511.16 149.176V585.016L536.696 602.504L561.56 619.318L563.576 495.561C564.248 426.957 564.248 313.289 563.576 243.339L561.56 114.874L536.696 131.689Z" fill="#FBFCFF"/>
<path d="M712.76 700.03H793.4V148.504H712.76V700.03Z" fill="#FBFCFF"/>
<path d="M640.856 176.753L611.96 191.55V543.315L638.84 555.422C653.624 562.148 667.064 566.184 669.08 564.166C671.096 562.148 671.768 471.348 671.096 361.715L669.08 162.628L640.856 176.753Z" fill="#FBFCFF"/>
<path d="M806.84 578.963H840.44V188.859H806.84V578.963Z" fill="#FBFCFF"/>
<path d="M853.88 464.622H921.08V276.296H853.88V464.622Z" fill="#FBFCFF"/>
</svg>
